<?xml version="1.0" encoding="utf-8"?>
<!-- Generator: Adobe Illustrator 16.0.0, SVG Export Plug-In . SVG Version: 6.00 Build 0)  -->
<!DOCTYPE svg PUBLIC "-//W3C//DTD SVG 1.1//EN" "http://www.w3.org/Graphics/SVG/1.1/DTD/svg11.dtd">
<svg version="1.1" id="Layer_1" xmlns="http://www.w3.org/2000/svg" xmlns:xlink="http://www.w3.org/1999/xlink" x="0px" y="0px"
	 width="260.869px" height="261.738px" viewBox="0 0 260.869 261.738" enable-background="new 0 0 260.869 261.738"
	 xml:space="preserve">
<g>
	<g>
		<g>
			<defs>
				<path id="SVGID_1_" d="M198.959,183.538c-31.135,16.794-34.138-13.791-34.138-13.791c-25.762-3.003-44.925-31.77-44.925-31.77
					c-34.82,17.979-15.44,68.699-0.423,88.158c19.29,24.948,5.161,65.357,5.161,65.357s-78.598-6.347-118.7-56.771
					c-30.114-37.829-22.341-73.606-13.754-97.211C2.502,109.127,16.43,93.56,36.778,77.019c30.204-24.662,86.08-27.75,86.08-27.75
					c0.338-2.073,2.073-4.525,4.272-7.021c-6.726,0.169-14.933,0.719-24.282,1.945c-6.388,1.228-13.452,1.937-20.601,4.02
					c-7.318,1.606-14.727,4.146-22.293,7.021c-7.572,2.834-15.022,6.854-22.378,10.999c-6.98,4.907-14.377,9.392-20.258,15.779
					c-6.726,5.5-11.644,12.606-16.667,19.459c-5.251,6.684-7.831,14.891-11.76,21.913c-2.924,7.53-4.574,15.26-6.769,22.378
					c-1.994,7.149-1.951,14.298-2.966,20.728c-0.846,6.431-1.486,12.343-1.021,17.641c0.217,5.288,0.302,9.897,0.434,13.695
					c0.207,7.583,0.333,11.939,0.333,11.939l-1.015,0.084c0,0-0.931-4.271-2.068-11.887c-0.597-3.851-1.28-8.503-2.036-13.875
					c-1.137-5.33-1.185-11.464-0.671-18.19c0.375-4.822,0.423-10.121,0.888-15.482l-12.606-0.253l12.897-15.821l-13.537-1.946
					l19.333-14.848l-14.166-4.484l20.003-10.999l-15.187-4.495l26.143-8.406L-21.183,84l29.357-8.09l-16.112-7.393l29.649-3.85
					L7.202,56.25l36.258-3.766c0.159-0.084,0.333-0.169,0.508-0.254l-16.752-7.571l38.062-3.216l-17.423-9.053l71.999,5.711
					c3.892,0.211,7.318,0.507,10.406,0.846c9.221-8.884,23.774-17.852,23.774-17.852c-3.004,2.961-4.188,19.206-4.188,19.206
					c3.002-5.415,12.605-10.83,12.605-10.83c-5.415,12.596,0,39.553,0,39.553c15.566,15.61,32.953,69.545,32.953,69.545l6.643,9.561
					C210.38,160.187,207.292,179.054,198.959,183.538L198.959,183.538z"/>
			</defs>
			<clipPath id="SVGID_2_">
				<use xlink:href="#SVGID_1_"  overflow="visible"/>
			</clipPath>
		</g>
	</g>
	<g>
		<g>
			<defs>
				<path id="SVGID_3_" d="M198.959,183.538c-31.135,16.794-34.138-13.791-34.138-13.791c-25.762-3.003-44.925-31.77-44.925-31.77
					c-34.82,17.979-15.44,68.699-0.423,88.158c19.29,24.948,5.161,65.357,5.161,65.357s-78.598-6.347-118.7-56.771
					c-30.114-37.829-22.341-73.606-13.754-97.211C2.502,109.127,16.43,93.56,36.778,77.019c30.204-24.662,86.08-27.75,86.08-27.75
					c0.338-2.073,2.073-4.525,4.272-7.021c-6.726,0.169-14.933,0.719-24.282,1.945c-6.388,1.228-13.452,1.937-20.601,4.02
					c-7.318,1.606-14.727,4.146-22.293,7.021c-7.572,2.834-15.022,6.854-22.378,10.999c-6.98,4.907-14.377,9.392-20.258,15.779
					c-6.726,5.5-11.644,12.606-16.667,19.459c-5.251,6.684-7.831,14.891-11.76,21.913c-2.924,7.53-4.574,15.26-6.769,22.378
					c-1.994,7.149-1.951,14.298-2.966,20.728c-0.846,6.431-1.486,12.343-1.021,17.641c0.217,5.288,0.302,9.897,0.434,13.695
					c0.207,7.583,0.333,11.939,0.333,11.939l-1.015,0.084c0,0-0.931-4.271-2.068-11.887c-0.597-3.851-1.28-8.503-2.036-13.875
					c-1.137-5.33-1.185-11.464-0.671-18.19c0.375-4.822,0.423-10.121,0.888-15.482l-12.606-0.253l12.897-15.821l-13.537-1.946
					l19.333-14.848l-14.166-4.484l20.003-10.999l-15.187-4.495l26.143-8.406L-21.183,84l29.357-8.09l-16.112-7.393l29.649-3.85
					L7.202,56.25l36.258-3.766c0.159-0.084,0.333-0.169,0.508-0.254l-16.752-7.571l38.062-3.216l-17.423-9.053l71.999,5.711
					c3.892,0.211,7.318,0.507,10.406,0.846c9.221-8.884,23.774-17.852,23.774-17.852c-3.004,2.961-4.188,19.206-4.188,19.206
					c3.002-5.415,12.605-10.83,12.605-10.83c-5.415,12.596,0,39.553,0,39.553c15.566,15.61,32.953,69.545,32.953,69.545l6.643,9.561
					C210.38,160.187,207.292,179.054,198.959,183.538L198.959,183.538z"/>
			</defs>
			<use xlink:href="#SVGID_3_"  overflow="visible" fill="#C8773B"/>
			<clipPath id="SVGID_4_">
				<use xlink:href="#SVGID_3_"  overflow="visible"/>
			</clipPath>
			<path clip-path="url(#SVGID_4_)" fill="#C8773B" d="M244.624,131.167c0,64.108-51.969,116.078-116.078,116.078
				c-64.115,0-116.083-51.97-116.083-116.078c0-64.109,51.968-116.078,116.083-116.078
				C192.655,15.089,244.624,67.058,244.624,131.167z"/>
		</g>
	</g>
	<g>
		<g>
			<defs>
				<path id="SVGID_5_" d="M198.959,183.538c-31.135,16.794-34.138-13.791-34.138-13.791c-25.762-3.003-44.925-31.77-44.925-31.77
					c-34.82,17.979-15.44,68.699-0.423,88.158c19.29,24.948,5.161,65.357,5.161,65.357s-78.598-6.347-118.7-56.771
					c-30.114-37.829-22.341-73.606-13.754-97.211C2.502,109.127,16.43,93.56,36.778,77.019c30.204-24.662,86.08-27.75,86.08-27.75
					c0.338-2.073,2.073-4.525,4.272-7.021c-6.726,0.169-14.933,0.719-24.282,1.945c-6.388,1.228-13.452,1.937-20.601,4.02
					c-7.318,1.606-14.727,4.146-22.293,7.021c-7.572,2.834-15.022,6.854-22.378,10.999c-6.98,4.907-14.377,9.392-20.258,15.779
					c-6.726,5.5-11.644,12.606-16.667,19.459c-5.251,6.684-7.831,14.891-11.76,21.913c-2.924,7.53-4.574,15.26-6.769,22.378
					c-1.994,7.149-1.951,14.298-2.966,20.728c-0.846,6.431-1.486,12.343-1.021,17.641c0.217,5.288,0.302,9.897,0.434,13.695
					c0.207,7.583,0.333,11.939,0.333,11.939l-1.015,0.084c0,0-0.931-4.271-2.068-11.887c-0.597-3.851-1.28-8.503-2.036-13.875
					c-1.137-5.33-1.185-11.464-0.671-18.19c0.375-4.822,0.423-10.121,0.888-15.482l-12.606-0.253l12.897-15.821l-13.537-1.946
					l19.333-14.848l-14.166-4.484l20.003-10.999l-15.187-4.495l26.143-8.406L-21.183,84l29.357-8.09l-16.112-7.393l29.649-3.85
					L7.202,56.25l36.258-3.766c0.159-0.084,0.333-0.169,0.508-0.254l-16.752-7.571l38.062-3.216l-17.423-9.053l71.999,5.711
					c3.892,0.211,7.318,0.507,10.406,0.846c9.221-8.884,23.774-17.852,23.774-17.852c-3.004,2.961-4.188,19.206-4.188,19.206
					c3.002-5.415,12.605-10.83,12.605-10.83c-5.415,12.596,0,39.553,0,39.553c15.566,15.61,32.953,69.545,32.953,69.545l6.643,9.561
					C210.38,160.187,207.292,179.054,198.959,183.538L198.959,183.538z"/>
			</defs>
			<clipPath id="SVGID_6_">
				<use xlink:href="#SVGID_5_"  overflow="visible"/>
			</clipPath>
		</g>
	</g>
</g>
<rect x="-39.246" y="21.181" fill="none" width="246.909" height="270.65"/>
</svg>
